<svg width="40" height="54" viewBox="0 0 40 54" fill="none" xmlns="http://www.w3.org/2000/svg">
<path d="M20 0C8.954 0 0 9.06592 0 20.25C0 37.125 20 54 20 54C20 54 40 37.125 40 20.25C40 9.06592 31.046 0 20 0ZM20 30.375C14.4773 30.375 10 25.8417 10 20.25C10 14.6583 14.4773 10.125 20 10.125C25.5227 10.125 30 14.6583 30 20.25C30 25.8417 25.5227 30.375 20 30.375Z" fill="#0959A1"/>
<path d="M20 30.375C14.4773 30.375 10 25.8417 10 20.25C10 14.6583 14.4773 10.125 20 10.125C25.5227 10.125 30 14.6583 30 20.25C30 25.8417 25.5227 30.375 20 30.375Z" fill="#0959A1"/>
</svg>
