<svg width="109" height="61" viewBox="0 0 109 61" fill="none" xmlns="http://www.w3.org/2000/svg">
<path d="M21.2031 32.2612C21.2031 32.0098 21.3707 31.7584 21.6221 31.7584C22.0411 31.7584 22.3763 32.1774 23.0467 32.5964C24.3875 33.4344 25.6445 33.7696 27.2366 33.7696C28.9126 33.7696 29.8344 33.0992 29.8344 32.2612C29.8344 31.2556 28.745 30.7528 26.5663 30.0824C25.0579 29.5797 23.9685 29.2445 23.2981 28.8255C22.3763 28.2389 21.9573 27.4847 21.9573 26.5629C21.9573 24.8869 23.3819 23.7137 25.6445 23.7137C26.7339 23.7137 27.3204 23.8813 27.5718 23.8813C27.8232 23.8813 27.907 23.7975 28.0746 23.5461C28.1584 23.3785 28.326 23.2109 28.4936 23.2109C28.745 23.2109 29.0802 23.4623 29.4154 23.8813L30.6724 25.3897C31.0076 25.7249 31.1752 25.9763 31.1752 26.2277C31.1752 26.4791 31.0076 26.6467 30.7562 26.6467C30.421 26.6467 30.002 26.3115 29.3316 25.8925C28.4936 25.3897 27.7394 25.1383 26.9014 25.1383C25.8121 25.1383 25.2255 25.4735 25.2255 26.0601C25.2255 26.8981 26.5663 26.9819 28.745 27.6523C31.5104 28.4903 32.7674 29.6635 32.7674 31.7584C32.7674 33.8534 31.0914 35.3618 27.9908 35.3618C26.0635 35.3618 24.8903 34.9428 24.4713 34.9428C24.1361 34.9428 24.0523 35.697 23.5495 35.697C23.2143 35.697 23.0467 35.4456 22.7115 34.9428L21.5383 33.0154C21.2869 32.764 21.2031 32.5126 21.2031 32.2612Z" fill="white"/>
<path d="M34.2712 26.6482C35.3606 24.8884 37.3718 23.8828 39.3829 23.8828C41.0589 23.8828 42.5673 24.5532 43.7405 25.7264C44.9137 26.8996 45.5841 28.4918 45.5841 30.2515C45.5841 33.5197 43.3215 35.6985 39.4667 35.6985C35.5282 35.6985 33.2656 33.6873 33.2656 30.4191C33.2656 28.9945 33.6008 27.7376 34.2712 26.6482ZM39.3829 34.0225C41.0589 34.0225 42.2321 32.5979 42.2321 30.0839C42.2321 27.151 40.9751 25.2236 39.3829 25.2236C38.545 25.2236 37.9584 25.7264 37.3718 26.6482C36.869 27.4862 36.5338 28.7431 36.5338 30.0001C36.5338 32.5141 37.707 34.0225 39.3829 34.0225Z" fill="white"/>
<path d="M45 34.6932C45 34.1904 45.419 34.1904 45.7542 34.0229C46.0056 33.8553 46.0894 33.6877 46.0894 33.3525V26.1458C46.0894 25.7268 46.0056 25.5592 45.7542 25.3916C45.419 25.224 45 25.224 45 24.7212C45 24.2184 45.3352 24.0508 45.9218 24.0508H49.0223C49.6927 24.0508 49.9441 24.2184 49.9441 24.7212C49.9441 25.224 49.5251 25.224 49.1899 25.3916C48.9385 25.5592 48.8547 25.7268 48.8547 26.1458V33.1011C48.8547 33.5201 49.1061 33.7715 49.5251 33.7715H51.2011C52.0391 33.7715 52.7095 33.6039 53.4637 33.1011C54.1341 32.6821 54.4693 32.2631 54.8883 32.2631C55.1397 32.2631 55.3073 32.4307 55.3073 32.7659C55.3073 33.0173 55.2235 33.1849 55.0559 33.3525L53.7989 35.4474C53.5475 35.7826 53.3799 36.034 53.1285 36.034C52.7933 36.034 52.6257 35.3636 51.8715 35.3636H46.0056C45.3352 35.3636 45 35.196 45 34.6932Z" fill="white"/>
<path d="M57.8222 34.4407C56.0624 33.4351 55.1406 31.843 55.1406 29.8318C55.1406 28.2396 55.7272 26.7312 56.9004 25.6418C58.0736 24.5525 59.7496 23.8821 61.5931 23.8821C62.4311 23.8821 63.0177 24.0497 63.6043 24.0497C64.1071 24.0497 64.1071 23.5469 64.5261 23.5469C64.8613 23.5469 64.9451 23.9659 65.1965 24.6363L65.6155 25.7256C65.8669 26.396 66.0345 26.8988 66.0345 27.0664C66.0345 27.3178 65.8669 27.4854 65.6993 27.4854C65.3641 27.4854 65.1127 27.0664 64.6099 26.6474C63.6881 25.8094 62.7663 25.3905 61.7607 25.3905C59.7496 25.3905 58.325 27.0664 58.325 29.4966C58.325 32.1782 59.7496 33.8541 62.0959 33.8541C63.0177 33.8541 63.4367 33.6027 63.4367 32.9324V31.5078C63.4367 31.0888 63.3529 30.9212 63.1015 30.8374C62.7663 30.6698 62.4311 30.6698 62.4311 30.167C62.4311 29.6642 62.6825 29.4966 63.2691 29.4966H66.2021C66.7887 29.4966 67.1239 29.6642 67.1239 30.167C67.1239 30.6698 66.7887 30.6698 66.4535 30.8374C66.2021 31.005 66.1183 31.1726 66.1183 31.5078V33.3513C66.1183 33.7703 66.2021 33.9379 66.4535 34.1055C66.7887 34.2731 67.2077 34.3569 67.2077 34.7759C67.2077 35.2787 66.8725 35.4463 66.2859 35.4463H63.3529C61.1741 35.3625 59.3306 35.2787 57.8222 34.4407Z" fill="white"/>
<path d="M67.793 34.777C67.793 34.1905 68.212 34.1904 68.5472 34.0229C68.9662 33.8553 69.2176 33.3525 69.4689 32.6821L73.0723 24.5536C73.3237 24.0508 73.2399 24.0508 73.7427 24.0508H75.0835C75.5025 24.0508 75.5025 24.0508 75.7539 24.6374L78.603 32.6821C78.8544 33.5201 79.022 33.9391 79.6086 34.1904C79.9438 34.358 80.279 34.4418 80.279 34.8608C80.279 35.2798 80.0276 35.3636 79.6086 35.3636H76.1729C75.5863 35.3636 75.3349 35.2798 75.3349 34.777C75.3349 34.5256 75.4187 34.358 75.6701 34.2742C75.9215 34.1904 76.0891 34.1904 76.0891 33.8553C76.0891 33.6877 75.9215 33.1011 75.6701 32.7659C75.3349 32.3469 75.0835 32.2631 74.4969 32.2631H72.6533C72.0667 32.2631 71.6477 32.3469 71.4801 32.5983C71.2287 32.8497 70.8935 33.5201 70.8935 33.9391C70.8935 34.1067 70.9773 34.1904 71.2287 34.2742C71.5639 34.4418 71.7315 34.6094 71.7315 34.8608C71.7315 35.196 71.4801 35.4474 71.0611 35.4474H68.2958C68.0444 35.3636 67.793 35.196 67.793 34.777ZM72.3181 30.4195C72.3181 30.7547 72.6533 30.8385 73.3237 30.8385C74.4131 30.8385 74.9997 30.6709 74.9997 30.4195C74.9997 30.2519 74.9997 30.1681 74.9159 30.0843L73.9941 27.3189C73.9103 27.1513 73.8265 27.0675 73.8265 27.0675C73.7427 27.0675 73.6589 27.1513 73.5751 27.3189L72.4857 30.1681C72.4019 30.2519 72.3181 30.3357 72.3181 30.4195Z" fill="white"/>
<path d="M84.8874 34.0246C85.2226 34.1922 85.6416 34.1922 85.6416 34.695C85.6416 35.1978 85.3064 35.3654 84.7198 35.3654H81.703C81.1164 35.3654 80.7812 35.1978 80.7812 34.695C80.7812 34.1922 81.2002 34.1922 81.5354 34.0246C81.7868 33.857 81.8706 33.6894 81.8706 33.2704V26.0637C81.8706 25.6447 81.7868 25.4771 81.5354 25.3095C81.2002 25.1419 80.7812 25.1419 80.7812 24.6391C80.7812 24.1363 81.1164 23.9688 81.703 23.9688H85.474C87.2338 23.9688 88.6583 24.1363 89.9153 24.9743C91.2561 25.8123 92.0103 27.1531 92.0103 28.4939C92.0103 30.0023 91.0885 31.0079 89.3287 31.5944L90.7533 33.3542C91.0885 33.7732 91.3399 34.0246 91.8427 34.1922C92.1779 34.3598 92.4293 34.4436 92.4293 34.7788C92.4293 35.114 92.1779 35.3654 91.5913 35.3654H87.988C87.569 35.3654 87.3176 35.114 87.3176 34.7788C87.3176 34.0246 88.0718 34.1084 88.0718 33.9408C88.0718 33.7732 87.569 33.1866 86.5634 32.181C85.6416 32.2648 85.1388 32.0972 84.8874 32.0972C84.5522 32.0972 84.4684 32.2648 84.4684 32.6V33.2704C84.5522 33.6894 84.636 33.9408 84.8874 34.0246ZM85.893 30.9241C87.6528 30.9241 88.6583 30.0023 88.6583 28.2425C88.6583 26.4827 87.6528 25.4771 85.893 25.4771C84.8874 25.4771 84.5522 25.7285 84.5522 26.3989V29.4995C84.5522 30.5889 84.8036 30.9241 85.893 30.9241Z" fill="white"/>
<path d="M40.0547 37.9609C43.0714 44.0783 49.3564 48.2682 56.5631 48.2682C63.7698 48.2682 70.0547 44.0783 73.0715 37.9609H40.0547Z" fill="white"/>
<path d="M72.9855 21.2856C69.9688 15.0845 63.7676 10.8945 56.4771 10.8945C49.2704 10.8945 42.9855 15.1683 39.9688 21.2856H72.9855Z" fill="white"/>
<path d="M80.3676 21.2849C77.0157 11.2291 67.5464 4.02235 56.4849 4.02235C45.4235 4.02235 36.038 11.2291 32.686 21.2849H28.4961C32.0156 8.96648 43.2447 0 56.5687 0C69.8927 0 81.1218 8.96648 84.6414 21.2849H80.3676Z" fill="white"/>
<path d="M80.3676 37.9609C76.9319 47.933 67.5464 55.1397 56.5687 55.1397C45.5911 55.1397 36.1218 47.933 32.686 37.9609H28.4961C32.0994 50.1956 43.2447 59.1621 56.4849 59.1621C69.7252 59.1621 80.9542 50.1956 84.4738 37.9609H80.3676Z" fill="white"/>
<path d="M9.38548 48.8558C9.38548 50.448 6.20112 52.0401 4.77654 51.9563C4.77654 51.7887 4.77654 51.6211 4.86034 51.3697C5.86592 51.1183 8.79888 50.1966 8.79888 48.772C8.79888 48.353 8.37989 48.1854 8.04469 48.1854C6.62011 48.1854 3.68715 49.9452 3.68715 51.5373C3.68715 53.9675 7.7095 53.3809 7.7095 55.9787C7.7095 58.4089 4.86034 58.9116 3.01676 58.9116C1.84358 58.9954 0 58.744 0 57.4871C0 56.3139 1.42458 55.7273 3.10056 55.7273C3.93855 55.7273 4.77654 55.8949 5.53073 56.1463C5.53073 56.2301 5.44693 56.7329 5.36313 56.7329C5.11173 56.7329 3.85475 56.3977 2.93296 56.3977C2.26257 56.3977 0.586592 56.6491 0.586592 57.4871C0.586592 58.4089 2.26257 58.4089 2.93296 58.4089C4.35754 58.4089 6.95531 58.1575 6.95531 56.2301C6.95531 54.1351 2.93296 54.3865 2.93296 51.9563C2.93296 49.6938 5.94972 47.7664 7.9609 47.7664C8.71509 47.6826 9.38548 48.0178 9.38548 48.8558Z" fill="white"/>
<path d="M11.565 53.2956L9.55386 57.7369C9.47006 57.9883 9.38626 58.1559 9.38626 58.1559C9.38626 58.1559 9.38626 58.2397 9.47006 58.2397C9.72146 58.2397 12.0678 56.3961 12.0678 56.3961L12.2354 56.3123C12.3192 56.3123 12.3192 56.5637 12.3192 56.7313C12.3192 57.0665 9.63766 58.9101 9.05107 58.9101C8.71587 58.9101 8.54827 58.8263 8.54827 58.5749C8.54827 58.1559 9.30246 56.6475 9.47006 56.2285C9.30246 56.3961 8.54827 57.1503 8.46447 57.1503C8.38067 57.1503 8.29688 57.0665 8.29688 56.8151C8.29688 56.4799 10.0567 55.1392 10.1405 54.804L10.8108 53.2956H11.565ZM11.146 51.7034C11.146 51.3682 11.3974 50.9492 11.7326 50.9492C11.984 50.9492 12.0678 51.2006 12.0678 51.3682C12.0678 51.7034 11.9002 52.1224 11.4812 52.1224C11.2298 52.1224 11.146 51.9548 11.146 51.7034Z" fill="white"/>
<path d="M13.1572 57.3189C13.9114 56.5647 17.2633 53.1289 18.1013 53.1289C18.3527 53.1289 18.5203 53.2965 18.5203 53.4641C18.5203 53.6317 16.8443 57.235 16.5091 57.9054C16.5091 57.9892 16.5091 58.073 16.5929 58.073C17.0119 58.073 19.0231 56.3133 19.2745 56.1457C19.2745 56.1457 19.3583 56.1457 19.3583 56.3133C19.3583 56.5647 19.3583 56.7323 19.1069 56.9837C18.6879 57.4026 16.7605 58.8272 16.0902 58.8272C15.755 58.8272 15.5874 58.7434 15.5874 58.3244C15.5874 57.9054 17.4309 54.4697 17.4309 54.2183C17.4309 54.1345 17.4309 54.0507 17.3471 54.0507C17.2633 54.0507 15.755 55.3077 14.6656 56.3971L13.1572 57.9892C12.9058 58.2406 12.403 58.8272 12.2354 58.8272C12.0678 58.8272 11.9002 58.7434 11.9002 58.5758C11.984 58.1568 12.5706 56.8999 12.822 56.3133L12.9058 56.1457C12.9058 56.1457 12.0678 56.9837 11.984 56.9837C11.9002 56.9837 11.8164 56.8999 11.8164 56.6485C11.8164 56.3133 13.3248 55.3077 13.66 54.5535C13.9952 53.7993 14.079 53.2127 14.6656 53.2127C14.8332 53.2127 14.917 53.2127 14.917 53.3803C14.917 53.5479 14.7494 53.7155 14.7494 53.7993L13.1572 57.3189Z" fill="white"/>
<path d="M22.7948 53.1289C23.2976 53.1289 23.9679 53.2965 23.9679 53.9669C23.9679 54.0507 23.549 55.5591 23.2138 55.5591C22.8786 55.5591 22.8786 55.3915 22.8786 55.3077C22.8786 54.9725 23.3814 54.3859 23.3814 54.0507C23.3814 53.7155 23.0462 53.6317 22.7948 53.6317C22.2082 53.6317 19.778 55.3077 19.778 57.0675C19.778 57.8216 19.9456 58.3244 20.7836 58.3244C22.1244 58.3244 24.1355 56.3133 24.2193 56.3133C24.3869 56.3133 24.3869 56.5647 24.3869 56.5647C24.3869 56.7323 24.3869 56.8161 24.2193 56.9837C23.3814 57.654 22.2082 58.911 20.4484 58.911C19.4428 58.911 19.1914 58.073 19.1914 56.7323C19.1914 55.1401 21.7054 53.1289 22.7948 53.1289Z" fill="white"/>
<path d="M27.6562 53.1289C28.3266 53.1289 28.7456 53.4641 28.7456 53.9669C28.7456 55.4753 27.1535 56.7323 25.2261 56.7323H24.6395C24.5557 57.4864 24.6395 58.3244 25.6451 58.3244C27.3211 58.3244 29.1646 56.2295 29.3322 56.2295C29.416 56.2295 29.4998 56.4809 29.4998 56.4809C29.4998 56.7323 29.416 56.8161 29.2484 56.9837C28.4942 57.5702 27.1535 58.911 25.4775 58.911C24.2205 58.911 24.0529 57.9892 24.0529 56.6485C23.9691 55.1401 26.3993 53.1289 27.6562 53.1289ZM27.5724 53.6317C26.7345 53.6317 24.8909 55.3077 24.8071 56.2295C24.9747 56.2295 25.1423 56.3133 25.2261 56.3133C26.6507 56.3133 28.0752 55.2239 28.0752 54.1345C28.0752 53.7993 27.8238 53.6317 27.5724 53.6317Z" fill="white"/>
<path d="M81.5352 58.9935C82.9597 56.8147 83.9653 54.3845 85.0547 52.1219C84.8871 52.3733 83.7977 53.0437 83.5463 53.0437C83.4625 53.0437 83.3787 52.8761 83.3787 52.7923C83.3787 52.6247 83.5463 52.4571 83.7977 52.2895C83.9653 52.2057 84.3843 52.0381 85.3061 51.2002C85.6413 50.865 85.8927 49.8594 86.5631 49.8594C86.7307 49.8594 86.8145 50.027 86.8145 50.1108C86.8145 50.2784 86.6469 50.6974 86.2279 51.1164C85.8927 51.4516 85.8089 51.7867 85.5575 52.2057C84.3005 55.2225 83.3787 57.2337 82.2893 58.9097L81.5352 58.9935Z" fill="white"/>
<path d="M89.3262 54.1367C89.3262 54.7232 89.5776 55.0584 90.1642 55.0584C90.9184 55.0584 91.7564 54.2205 92.1753 53.6339C92.2591 53.7177 92.4267 53.8853 92.4267 53.9691C92.4267 54.3043 91.2536 55.5612 89.9966 55.5612C89.1586 55.5612 88.6558 54.8908 88.6558 54.0529C88.6558 52.0417 90.4994 49.6953 92.5943 49.6953C93.7675 49.6953 94.3541 50.3657 94.3541 51.5389C94.3541 53.9691 91.1698 57.8238 88.4044 59.7512C88.2368 59.835 88.0692 60.0026 87.9016 60.0026C87.734 60.0026 87.5664 59.9188 87.5664 59.7512C87.5664 59.6674 87.734 59.4998 87.9854 59.3322C89.9966 57.9076 93.6837 53.9691 93.6837 51.4551C93.6837 50.7009 93.2647 50.2819 92.5943 50.2819C90.9184 50.3657 89.3262 52.6283 89.3262 54.1367Z" fill="white"/>
<path d="M100.054 52.5416C100.305 52.0388 100.64 51.4522 100.892 50.8656C100.976 50.7818 101.059 50.698 101.143 50.698C101.311 50.698 101.395 50.7818 101.395 50.8656C101.395 51.0332 99.2158 55.2232 99.2158 55.2232C99.2158 55.3908 99.97 55.3908 100.054 55.3908C100.221 55.3908 100.473 55.3908 100.64 55.3908C100.724 55.3908 100.892 55.3908 100.892 55.4746C100.892 55.6422 100.724 55.9773 100.389 55.9773C99.97 55.9773 99.4672 55.8935 98.9644 55.8935L97.875 58.4075C97.7912 58.5751 97.7074 58.9103 97.456 58.9103C97.2884 58.9103 97.2046 58.8265 97.2046 58.6589C97.2046 58.1561 98.2102 56.3963 98.3778 55.8098C97.7912 55.726 96.618 55.5584 95.9476 55.5584C95.6125 55.5584 95.2773 56.4801 94.6907 56.4801C94.5231 56.4801 94.3555 56.3963 94.3555 56.1449C94.3555 55.726 94.9421 55.307 95.2773 55.1394C95.6962 54.888 95.6125 54.888 95.8639 54.5528C97.1208 52.8768 98.1264 50.0276 98.2102 49.7762C98.3778 49.441 98.3778 49.2734 98.713 49.2734C98.8806 49.2734 99.0482 49.3572 99.0482 49.5248C99.0482 49.7762 97.3722 53.3796 96.2828 55.0556C96.9532 55.1394 97.7074 55.307 98.4616 55.307C98.713 55.307 98.713 55.307 98.8806 55.0556L100.054 52.5416Z" fill="white"/>
<path d="M103.07 51.3713C103.07 50.7847 103.992 50.2819 103.992 49.7791C103.992 49.6953 104.243 49.6953 104.327 49.6953C104.411 49.6953 104.579 49.6953 104.662 49.6953C104.746 49.6953 104.662 49.7791 104.746 49.7791C104.83 49.7791 105.165 49.6953 105.584 49.6953C105.836 49.6953 106.757 49.8629 107.428 49.8629C107.847 49.8629 108.182 49.7791 108.601 49.7791C108.852 49.7791 108.936 49.7791 108.936 49.8629C108.936 50.1143 108.936 50.1981 108.433 50.8685C107.26 52.5445 106.757 53.4663 106.087 55.0584C105.417 56.483 104.914 57.74 104.243 58.7456C104.076 58.997 103.992 59.0808 103.657 59.0808C103.573 59.0808 103.322 58.997 103.322 58.9132C103.322 58.8294 103.908 57.9076 103.992 57.74C105.5 54.8908 105.752 53.7177 107.931 50.5333C107.093 50.6171 106.255 50.3657 105.417 50.3657C105.081 50.3657 104.83 50.3657 104.579 50.4495C104.411 50.5333 104.411 50.5333 104.327 50.7009C104.243 50.9523 103.741 51.7903 103.406 51.7903C103.154 51.7903 103.07 51.5389 103.07 51.3713Z" fill="white"/>
<path d="M96.7028 25.8962C96.7028 26.9856 95.8648 27.8236 94.8592 27.8236C93.8536 27.8236 93.0156 26.9856 93.0156 25.8962C93.0156 24.8906 93.8536 24.0527 94.8592 24.0527C95.9486 23.9689 96.7028 24.8068 96.7028 25.8962ZM93.267 25.8962C93.267 26.818 93.9374 27.4884 94.8592 27.4884C95.6972 27.4884 96.4514 26.7342 96.4514 25.8962C96.4514 24.9744 95.781 24.304 94.8592 24.304C94.0212 24.304 93.267 24.9744 93.267 25.8962ZM95.781 26.9018H95.5296L94.943 25.8962H94.4402V26.9018H94.1888V24.8068H95.1106C95.2782 24.8068 95.4458 24.8068 95.6134 24.8906C95.781 24.9744 95.8648 25.142 95.8648 25.3096C95.8648 25.7286 95.6134 25.8962 95.1944 25.8962L95.781 26.9018ZM94.8592 25.7286C95.1106 25.7286 95.6134 25.8124 95.6134 25.3096C95.6134 24.9744 95.362 24.9744 95.1106 24.9744H94.524V25.7286H94.8592Z" fill="white"/>
</svg>
