<svg width="120" height="90" viewBox="0 0 120 90" fill="none" xmlns="http://www.w3.org/2000/svg">
<path d="M64.6433 31.908C67.8855 23.5965 64.2867 18.4576 60.3569 18.6892C56.7596 18.9012 52.6613 23.1969 51.599 30.9846C50.5315 31.1163 49.4725 31.3093 48.4272 31.5629C42.5909 32.9951 30.6464 39.688 31.9388 52.8025C32.5293 58.7913 38.8502 60.7011 42.6145 59.1641C45.2036 58.1073 46.919 55.8452 47.049 53.8979C47.049 53.8979 42.9984 54.8366 41.5837 50.2518C40.2989 46.0922 42.502 37.0479 51.3395 34.6194C51.3318 35.3296 51.3457 36.0614 51.3858 36.8158C51.5081 39.1005 51.7224 40.8865 51.9562 42.633C50.2095 43.6575 48.4053 44.5808 46.5525 45.3984L46.5973 50.0407C46.5973 50.0407 49.1765 48.7256 52.4429 46.3469C52.7995 49.369 53.078 53.0824 52.9907 59.3069C52.8756 67.5111 52.1957 72.4019 50.3184 75.6818C47.3496 74.5084 43.7061 73.0628 41.5009 72.8908C38.2572 72.6407 35.5042 74.1746 35.3717 77.0386C35.2941 78.7071 35.7242 80.6164 38.5979 82.1138C41.5842 83.6698 46.5238 83.7792 51.6124 79.3171C54.3684 80.7478 57.7792 82.2155 61.2737 82.69C66.5848 83.409 80.3866 80.3427 84.3025 64.5624C88.668 46.9791 75.6418 35.097 64.6433 31.908ZM60.3183 24.071C62.6021 24.3565 63.2095 27.6657 62.1987 31.3302C59.7762 30.88 57.3132 30.6838 54.8499 30.7448C55.9199 26.2422 58.2607 23.8121 60.3209 24.0689L60.3183 24.071ZM54.4306 39.3993C54.239 37.6346 54.208 35.8562 54.3381 34.0858C56.6707 33.8763 58.8779 34.0371 60.9263 34.5193C60.7611 34.8298 60.5847 35.1369 60.397 35.4405C59.1369 37.47 56.9456 39.3434 54.6732 40.9102C54.5656 40.4112 54.4846 39.9069 54.4306 39.3993ZM46.1337 79.8605C42.9989 81.7703 39.9669 79.69 39.9541 78.0045C39.9382 75.708 42.501 74.6666 46.0571 76.2431C46.6343 76.4999 47.5757 77.0617 48.7808 77.7565C48.0279 78.5525 47.1523 79.2391 46.1322 79.862L46.1337 79.8605ZM71.9782 69.8512C68.6923 75.4451 61.546 79.3577 53.8448 76.9965C55.5879 74.8648 57.6291 71.5654 60.1929 65.8133C63.911 57.4726 65.2805 50.6642 65.2805 50.6642C65.2805 50.6642 58.5659 49.7218 55.6588 43.7983C58.3666 41.4678 61.1288 38.5515 63.08 35.1632C69.7607 37.6282 74.3657 43.8193 75.3797 52.007C76.0518 57.434 75.725 63.4685 71.9771 69.8492" fill="white"/>
<path d="M50.4953 0.5L52.2647 5.97635H57.9961L53.3554 9.47469L55.1299 15.0039L50.4953 11.6497L45.8551 15.0444L47.6317 9.46802L42.9961 5.97635H48.7274L50.4953 0.5Z" fill="#BFA069"/>
<path d="M66.5013 0.5L68.2699 5.97727H74L69.3638 9.47619L71.1411 15.0063L66.5013 11.6516L61.865 15.0469L63.6393 9.46952L59 5.97727H64.7337L66.5013 0.5Z" fill="#BFA069"/>
</svg>
